<?xml version="1.0" encoding="utf-8"?>
<!-- Generator: Adobe Illustrator 24.2.1, SVG Export Plug-In . SVG Version: 6.00 Build 0)  -->
<svg version="1.1" id="Layer_1" xmlns="http://www.w3.org/2000/svg" xmlns:xlink="http://www.w3.org/1999/xlink" x="0px" y="0px"
	 viewBox="0 0 55 55" style="enable-background:new 0 0 55 55;" xml:space="preserve">
<style type="text/css">
	.st0{fill-rule:evenodd;clip-rule:evenodd;fill:#FFFFFF;stroke:#3E72D7;stroke-width:2;}
	.st1{fill-rule:evenodd;clip-rule:evenodd;fill:#3E72D7;}
	.st2{fill-rule:evenodd;clip-rule:evenodd;fill:#FFFFFF;stroke:#FF0000;}
	.st3{fill-rule:evenodd;clip-rule:evenodd;fill:#FFFFFF;stroke:#3E72D7;}
	.st4{fill:none;stroke:#FF0000;}
</style>
<desc>Created with Sketch.</desc>
<ellipse id="Oval-46" class="st0" cx="27.26" cy="27.5" rx="26.26" ry="26.5"/>
<path id="Rectangle-113" class="st1" d="M12,14h30c0.55,0,1,0.45,1,1v6c0,0.55-0.45,1-1,1H12c-0.55,0-1-0.45-1-1v-6
	C11,14.45,11.45,14,12,14z"/>
<path id="Rectangle-113-Copy" class="st2" d="M20.52,24.5h21c0.55,0,1,0.45,1,1v5c0,0.55-0.45,1-1,1h-21c-0.55,0-1-0.45-1-1v-5
	C19.52,24.95,19.97,24.5,20.52,24.5z"/>
<path id="Rectangle-113-Copy-2" class="st3" d="M20.52,34.5h21c0.55,0,1,0.45,1,1v5c0,0.55-0.45,1-1,1h-21c-0.55,0-1-0.45-1-1v-5
	C19.52,34.95,19.97,34.5,20.52,34.5z"/>
<line class="st4" x1="19.52" y1="27.5" x2="22.43" y2="24.5"/>
<line class="st4" x1="39.17" y1="31.5" x2="42.52" y2="28.04"/>
<line class="st4" x1="19.52" y1="30.5" x2="25.43" y2="24.5"/>
<line class="st4" x1="22.16" y1="31.5" x2="28.92" y2="24.5"/>
<line class="st4" x1="25.86" y1="31.5" x2="32.62" y2="24.5"/>
<line class="st4" x1="29.24" y1="31.5" x2="36" y2="24.5"/>
<line class="st4" x1="32.62" y1="31.5" x2="39.38" y2="24.5"/>
<line class="st4" x1="36" y1="31.5" x2="42.34" y2="24.93"/>
</svg>
