<svg width="561" height="566" viewBox="0 0 561 566" fill="none" xmlns="http://www.w3.org/2000/svg">
<rect width="561" height="566" fill="#F5F5F5"/>
<path d="M277.927 545.418C425.736 545.418 545.56 425.626 545.56 277.855C545.56 130.083 425.736 10.2909 277.927 10.2909C130.117 10.2909 10.2936 130.083 10.2936 277.855C10.2936 425.626 130.117 545.418 277.927 545.418Z" fill="white" stroke="#3E72D7" stroke-width="20"/>
<path fill-rule="evenodd" clip-rule="evenodd" d="M402.588 207.993V340.872H382.159V207.993H341.299C333.171 207.993 325.377 204.762 319.63 199.012C313.883 193.261 310.654 185.461 310.654 177.329V136.443H198.29C192.871 136.443 187.675 138.597 183.844 142.431C180.012 146.264 177.86 151.464 177.86 156.886V340.872H157.43V156.886C157.43 146.042 161.735 135.643 169.397 127.975C177.06 120.308 187.453 116 198.29 116H310.654L402.588 207.993ZM203.683 358.249V440H187.523V404.961H153.14V440H137V358.249H153.16V391.489H187.523V358.249H203.663H203.683ZM249.671 371.782V440H233.449V371.782H210.302V358.249H272.9V371.782H249.671V371.782ZM294.126 440V385.622H294.903L314.352 429.758H324.894L344.22 385.601H344.997V440H359.604V358.249H343.26L319.97 411.319H319.439L296.149 358.249H279.703V440H294.126ZM390.351 426.221H425V440H374.191V358.249H390.33V426.221H390.351Z" fill="#3E72D7"/>
</svg>
