<svg width="60" height="60" viewBox="0 0 60 60" fill="none" xmlns="http://www.w3.org/2000/svg">
<path d="M22 35C18.887 35 15.959 33.787 13.758 31.586L6.693 24.521C4.312 22.14 3 18.974 3 15.606C3 8.655 8.655 3 15.606 3C18.973 3 22.139 4.312 24.52 6.692L31.585 13.757C33.787 15.959 35 18.887 35 22V23H31C31 23 31 23 31 22C31 19.955 30.204 18.032 28.758 16.586L21.693 9.521C20.066 7.896 17.905 7 15.606 7C10.861 7 7 10.861 7 15.606C7 17.905 7.896 20.066 9.521 21.692L16.586 28.757C18.032 30.204 19.955 31 22 31H23V35C23 35 23 35 22 35Z" fill="black"/>
<path d="M44.394 57C41.027 57 37.861 55.688 35.48 53.308L28.415 46.243C26.213 44.041 25 41.113 25 38C25 37 25 37 25 37H29V38C29 40.045 29.796 41.968 31.242 43.414L38.307 50.479C39.934 52.104 42.095 53 44.394 53C49.139 53 53 49.139 53 44.394C53 42.095 52.104 39.934 50.479 38.308L43.414 31.243C41.968 29.796 40.045 29 38 29C37.64 29 37 29 37 29V25H38C41.113 25 44.041 26.213 46.242 28.414L53.307 35.479C55.688 37.86 57 41.026 57 44.394C57 51.345 51.345 57 44.394 57Z" fill="black"/>
<path d="M23.9141 21.0859C23.9141 21.0859 35.4141 32.5859 38.9141 36.0859L36.0861 38.9139C32.5861 35.4139 21.0861 23.9139 21.0861 23.9139L23.9141 21.0859Z" fill="black"/>
</svg>
