<?xml version="1.0" encoding="UTF-8"?>
<svg width="17px" height="42px" viewBox="0 0 17 42" version="1.1" xmlns="http://www.w3.org/2000/svg" xmlns:xlink="http://www.w3.org/1999/xlink">
    <!-- Generator: Sketch 56.3 (81716) - https://sketch.com -->
    <title>pencil</title>
    <desc>Created with Sketch.</desc>
    <g id="Symbols" stroke="none" stroke-width="1" fill="none" fill-rule="evenodd">
        <g id="pencil" transform="translate(-21.155069, -9.000000)" fill="#000000">
            <g transform="translate(29.500000, 30.000000) rotate(-315.000000) translate(-29.500000, -30.000000) translate(9.000000, 9.000000)" id="Shape">
                <path d="M37.3907048,19.3635458 L24.7921454,13.7671401 C24.2076027,14.6547448 23.7307372,15.8281847 23.3615489,17.2874598 L0.633397491,17.2874598 L4.1868268,12.8870562 L23.5922834,12.8870562 C24.4844939,12.8870562 25.138269,12.9622793 25.5536086,13.1127257 L36.9522896,18.0772792 C38.782851,18.8746139 39.8442701,19.3710665 40.136547,19.5666372 C40.4288128,19.7622078 40.6595528,19.9841117 40.8287668,20.2323487 C40.9979809,20.480575 41.0825879,20.7400824 41.0825879,21.0108709 C41.0825879,21.3418465 40.9518351,21.6464889 40.6903294,21.9247981 C40.4288128,22.203118 40.0288534,22.4776722 39.490451,22.7484606 L32.4297327,25.8851598 C28.2609786,27.7205455 26.0612289,28.683368 25.8304834,28.7736273 C25.2767119,28.9992915 24.5306452,29.1121236 23.5922834,29.1121236 L4.1868268,29.1121236 L0.633397491,24.7117199 L23.3153922,24.7117199 C23.6538202,25.9904765 24.1460713,27.1639164 24.7921454,28.2320396 L37.3907048,22.6356339 C37.0830479,22.0639634 36.9292194,21.5073343 36.9292194,20.9657466 C36.9292194,20.424159 37.0830479,19.8900921 37.3907048,19.3635458 L37.3907048,19.3635458 Z M23.1769547,18.5286022 C23.0846522,19.4914247 23.0385009,20.3188476 23.0385009,21.0108709 C23.0385009,21.8683927 23.0846522,22.6882949 23.1769547,23.4705775 L0.310349513,23.4705775 L0.310349513,18.5286022 L23.1769547,18.5286022 L23.1769547,18.5286022 Z" transform="translate(20.696469, 20.999590) rotate(-135.000000) translate(-20.696469, -20.999590) "></path>
            </g>
        </g>
    </g>
</svg>