<?xml version="1.0" encoding="UTF-8"?>
<svg width="79px" height="31px" viewBox="0 0 79 31" version="1.1" xmlns="http://www.w3.org/2000/svg" xmlns:xlink="http://www.w3.org/1999/xlink">
    <!-- Generator: Sketch 56.3 (81716) - https://sketch.com -->
    <title>H2O</title>
    <desc>Created with Sketch.</desc>
    <g id="H2O" stroke="none" stroke-width="1" fill="none" fill-rule="evenodd">
        <g id="Group-3">
            <g id="Group-2" transform="translate(0.104202, 0.545455)">
                <polygon id="Path" fill="#000000" points="7.63483978 17.798574 16.8287192 17.798574 16.8287192 28.6363636 24.1339335 28.6363636 24.1339335 1.36363636 16.8287192 1.36363636 16.8287192 12.4153298 7.63483978 12.4153298 7.63483978 1.36363636 0.400895905 1.36363636 0.400895905 28.6363636 7.63483978 28.6363636"></polygon>
                <polygon id="Path-Copy" fill="#000000" points="24.1339333 12.4153298 24.1339335 1.36363636 16.8287192 1.36363636 16.8287192 12.4153298"></polygon>
                <path d="M35.0578276,10.4593805 C35.0578276,6.61576302 36.9411382,5.6736999 38.5231191,5.6736999 C40.2934311,5.6736999 41.4234175,6.80417565 41.4234175,8.91439703 C41.4234175,10.7608407 40.444096,12.3811893 37.2801341,15.3581088 L27.2609215,24.7410574 L27.2609215,28.6977225 L49.0319925,28.6977225 L49.0319925,22.9699788 L38.0711246,22.9699788 L38.0711246,22.8946137 L42.741735,18.6741709 C46.809686,14.9812835 49.0696587,12.6826495 49.0696587,8.46220673 C49.0696587,3.90262124 46.0940279,0.360463917 38.7867826,0.360463917 C31.4795373,0.360463917 27.8635809,4.24176396 27.7505823,10.4593805 L35.0578276,10.4593805 Z" id="H2O" fill="#121212"></path>
                <path d="M51.8024859,14.8500005 C51.8024859,6.26322332 56.6941994,0.681818182 64.8004673,0.681818182 C73.326025,0.681818182 77.6936263,6.08433213 77.6936263,14.8500005 C77.6936263,23.4725558 73.0115577,29.0181828 64.8004673,29.0181828 C56.030324,29.0181828 51.8024859,23.5798906 51.8024859,14.8500005 Z M64.7655265,23.8661165 C68.2945484,23.8661165 70.0066481,20.8965227 70.0066481,14.8500005 C70.0066481,8.80347823 67.8403178,5.76232799 64.7655265,5.76232799 C61.2365047,5.76232799 59.524405,8.80347823 59.524405,14.8500005 C59.524405,20.9323009 61.0618006,23.8661165 64.7655265,23.8661165 Z" id="Combined-Shape" fill="#000000"></path>
            </g>
        </g>
    </g>
</svg>