<?xml version="1.0" encoding="UTF-8"?>
<svg width="55px" height="55px" viewBox="0 0 55 55" version="1.1" xmlns="http://www.w3.org/2000/svg" xmlns:xlink="http://www.w3.org/1999/xlink">
    <!-- Generator: Sketch 56.3 (81716) - https://sketch.com -->
    <title>button/clone-primary</title>
    <desc>Created with Sketch.</desc>
    <g id="button/clone-primary" stroke="none" stroke-width="1" fill="none" fill-rule="evenodd">
        <ellipse id="Oval-46" stroke="#0DAF02" stroke-width="2" fill="#0DAF02" cx="27.2560386" cy="27.5" rx="26.2560386" ry="26.5"></ellipse>
        <ellipse id="Oval-46-Copy" stroke="#0DAF02" stroke-width="2" fill="#0DAF02" cx="27.2560386" cy="27.5" rx="26.2560386" ry="26.5"></ellipse>
        <ellipse id="Oval-46-Copy-2" stroke="#0DAF02" stroke-width="2" fill="#0DAF02" cx="27.2560386" cy="27.5" rx="26.2560386" ry="26.5"></ellipse>
        <path d="M26.88,24.5 L33.39,24.5 C33.9,25.4 34.89,26 36,26 C37.65,26 39,24.65 39,23 C39,21.35 37.65,20 36,20 C34.89,20 33.93,20.6 33.39,21.5 L23.67,21.5 C24.99,22.13 26.04,23.24 26.88,24.5 L26.88,24.5 Z M36,21.2 C36.99,21.2 37.8,22.01 37.8,23 C37.8,23.99 36.99,24.8 36,24.8 C35.01,24.8 34.2,23.99 34.2,23 C34.2,22.01 35.01,21.2 36,21.2 L36,21.2 Z M36,32 C34.89,32 33.93,32.6 33.39,33.5 L33,33.5 C31.08,33.5 29.94,31.55 28.35,28.34 C26.73,25.13 24.93,21.5 21,21.5 L20.61,21.5 C20.1,20.6 19.11,20 18,20 C16.35,20 15,21.35 15,23 C15,24.65 16.35,26 18,26 C19.11,26 20.07,25.4 20.61,24.5 L21,24.5 C22.92,24.5 24.06,26.45 25.65,29.66 C27.27,32.87 29.07,36.5 33,36.5 L33.39,36.5 C33.9,37.4 34.89,38 36,38 C37.65,38 39,36.65 39,35 C39,33.35 37.65,32 36,32 L36,32 Z M18,24.8 C17.01,24.8 16.2,23.99 16.2,23 C16.2,22.01 17.01,21.2 18,21.2 C18.99,21.2 19.8,22.01 19.8,23 C19.8,23.99 18.99,24.8 18,24.8 L18,24.8 Z M36,36.8 C35.01,36.8 34.2,35.99 34.2,35 C34.2,34.01 35.01,33.2 36,33.2 C36.99,33.2 37.8,34.01 37.8,35 C37.8,35.99 36.99,36.8 36,36.8 L36,36.8 Z" id="Shape" fill="#FFFFFF"></path>
    </g>
</svg>