<?xml version="1.0" encoding="utf-8"?>
<!-- Generator: Adobe Illustrator 26.5.0, SVG Export Plug-In . SVG Version: 6.00 Build 0)  -->
<svg version="1.1" id="Layer_1" xmlns="http://www.w3.org/2000/svg" xmlns:xlink="http://www.w3.org/1999/xlink" x="0px" y="0px"
	 viewBox="0 0 54.5 55" style="enable-background:new 0 0 54.5 55;" xml:space="preserve">
<style type="text/css">
	.st0{fill:#FFFFFF;}
	.st1{fill:none;stroke:#3E72D7;stroke-width:2;}
	.st2{fill-rule:evenodd;clip-rule:evenodd;fill:#3E72D7;}
	.st3{fill:#14950E;}
	.st4{font-family:'Roboto-Regular';}
	.st5{font-size:10.8624px;}
</style>
<g id="Layer_2_00000043428380023692341430000016231030485590875812_">
	<circle id="Oval-46" class="st0" cx="27" cy="27" r="25"/>
	<circle id="Oval-46-2" class="st1" cx="27" cy="27" r="26"/>
	<g id="doc_and_arrow" transform="scale(.95, .95) translate(1.25,1.25)">
		<path class="st2" d="M43.6,17c0-0.2,0-0.3-0.2-0.5l-9-9c-0.1-0.1-0.2-0.2-0.4-0.2H14.6c-1.1,0-1.9,0.9-1.9,2v9.1l2,2v-11h19.5v7
			c0,0.2,0.1,0.3,0.2,0.4c0.1,0.1,0.3,0.2,0.4,0.2h6.9v16h-27v-1.7l-2,2v11.3c0,1.1,0.8,2,1.9,2c0,0,0,0,0.1,0h27.1
			c1.1,0,1.9-0.9,1.9-1.9c0,0,0,0,0-0.1L43.6,17z"/>
		<polygon class="st2" points="12.6,24.9 13.6,25.9 12.6,26.8 12.6,30.7 15.7,27.6 15.7,24.2 12.6,21.1 		"/>
		<g>
			<polygon class="st3" points="6.1,32 12.2,25.9 6.1,19.8 9.4,16.4 18.8,25.9 9.4,35.3 			"/>
			<path class="st0" d="M9.4,17.8l8,8l-8,8l-1.9-1.9l6.1-6.1l-6.1-6.1L9.4,17.8 M9.4,15L8,16.4l-1.9,1.9l-1.4,1.4l1.4,1.4l4.7,4.7
				l-4.7,4.7L4.7,32l1.4,1.4L8,35.3l1.4,1.4l1.4-1.4l8-8l1.4-1.4l-1.4-1.4l-8-8L9.4,15L9.4,15z"/>
			<path class="st3" d="M3.6,24.5h10v2.7H3.5C3.5,26.4,3.6,25.5,3.6,24.5z"/>
		</g>
		<text transform="matrix(1.1514 0 0 1.0526 18.2278 43.0407)" class="st0 st4 st5">pdf</text>
	</g>
</g>
</svg>
