<?xml version="1.0" encoding="utf-8"?>
<!-- Generator: Adobe Illustrator 26.0.2, SVG Export Plug-In . SVG Version: 6.00 Build 0)  -->
<svg version="1.1" id="Layer_1" xmlns="http://www.w3.org/2000/svg" xmlns:xlink="http://www.w3.org/1999/xlink" x="0px" y="0px"
	 viewBox="0 0 55 55" style="enable-background:new 0 0 55 55;" xml:space="preserve">
<style type="text/css">
	.st0{fill-rule:evenodd;clip-rule:evenodd;fill:#FFFFFF;stroke:#3E72D7;stroke-width:0.5;}
	.st1{fill-rule:evenodd;clip-rule:evenodd;fill:#FFFFFF;stroke:#3E72D7;stroke-width:0.4721;}
	.st2{fill-rule:evenodd;clip-rule:evenodd;fill:#3E72D7;}
	.st3{fill:none;stroke:#3E72D7;}
	.st4{fill:#FFFFFF;stroke:#3E72D7;}
	.st5{fill:#3E72D7;stroke:#FFFFFF;stroke-width:1.1258;}
	.st6{fill:#FFFFFF;stroke:#3E72D7;stroke-width:2.2515;}
	.st7{fill:none;stroke:#FFFFFF;stroke-width:2.2515;}
	.st8{fill:#3E72D7;}
</style>
<desc>Created with Sketch.</desc>
<g id="button_x2F_export-default">
	<ellipse id="Oval-46" class="st0" cx="27.3" cy="27.5" rx="25.5" ry="25.7"/>
	<ellipse id="Oval-46_00000053532393160494607380000013314728010951116177_" class="st1" cx="27.3" cy="27.5" rx="24.1" ry="24.2"/>
	<g id="doc_x2F_arrow" transform="translate(17.671498, 10.193548)">
		<g id="Group">
			<path id="doc-1" class="st2" d="M2.7,23.9V3h11v4.5c0,0.1,0,0.2,0.1,0.3c0.1,0.1,0.2,0.1,0.3,0.1h4.5v16.1H2.7z M20.4,7.4
				c0-0.1,0-0.2-0.1-0.3l-6-6.1c-0.1-0.1-0.2-0.1-0.2-0.1l0,0H1.9c-0.7,0-1.3,0.6-1.3,1.3v22.5c0,0.7,0.6,1.3,1.3,1.3h17.2
				c0.7,0,1.3-0.6,1.3-1.3V7.4L20.4,7.4z"/>
			<rect id="Rectangle-116" x="5.1" y="11" class="st2" width="3.3" height="0.8"/>
			
				<rect id="Rectangle-116_00000013178616369065053330000006665181760879989137_" x="9" y="20.8" class="st2" width="3.3" height="0.8"/>
		</g>
	</g>
</g>
<g>
	<path class="st3" d="M39.8,43.3c1.2-2,1.1-2.7,0.3-4.8s1.3-4.1,0.2-6.7s-1-3.5-0.2-5c2.8-4.8-2.5-4.9-4.3-4.9c-2.2,0-4.7,0-4.7,0"
		/>
	<circle class="st4" cx="31.4" cy="22" r="2.9"/>
</g>
<g>
	<path class="st5" d="M37.7,14.4H17.3L16.4,1.9C16.3,1,17,0,17.9,0h19.1c0.9,0,1.7,1,1.7,2.1L37.7,14.4z"/>
	<polygon class="st6" points="35,14.4 14.6,14.4 14.6,14.4 40.5,14.4 	"/>
	<line class="st7" x1="17.2" y1="9.1" x2="37.7" y2="9.1"/>
</g>
<polygon class="st8" points="38,45.8 28.2,43.8 18.3,45.8 18.3,40.2 28.2,42.2 38,40.2 "/>
</svg>
