<?xml version="1.0" encoding="utf-8"?>
<!-- Generator: Adobe Illustrator 24.3.0, SVG Export Plug-In . SVG Version: 6.00 Build 0)  -->
<svg version="1.1" id="Layer_1" xmlns="http://www.w3.org/2000/svg" xmlns:xlink="http://www.w3.org/1999/xlink" x="0px" y="0px"
	 viewBox="0 0 32 32" style="enable-background:new 0 0 32 32;" xml:space="preserve">
<style type="text/css">
	.st0{fill:#FFFFFF;stroke:#3E72D7;stroke-miterlimit:10;}
	.st1{fill:#3E72D7;}
</style>
<circle class="st0" cx="16" cy="16" r="15.5"/>
<path class="st1" d="M8.5,20c-1.2,1.2-1.2,3.1,0,4.2c1.2,1.2,3.1,1.2,4.2,0c1.1-1.2,1.1-3.1-0.1-4.2C11.5,19,9.7,19,8.5,20z
	 M11.3,22.9c-0.4,0.4-1,0.4-1.4,0s-0.4-1,0-1.4c0.4-0.4,1-0.4,1.4,0c0,0,0,0,0,0C11.7,21.8,11.7,22.5,11.3,22.9
	C11.4,22.9,11.4,22.9,11.3,22.9z M10.6,15.1c-0.6,0-1,0.4-1,1c0,0.6,0.4,1,1,1c2.8,0,5,2.2,5,5c0,0.6,0.4,1,1,1c0.6,0,1-0.4,1-1
	C17.6,18.3,14.5,15.1,10.6,15.1z M10.6,11.1c-0.6,0-1,0.4-1,1s0.4,1,1,1c5,0,9,4,9,9c0,0.6,0.4,1,1,1c0.6,0,1-0.4,1-1
	c0-2.9-1.2-5.7-3.2-7.8C16.4,12.3,13.6,11.2,10.6,11.1z M21.2,11.5c-2.8-2.8-6.6-4.4-10.6-4.4c-0.6,0-1,0.4-1,1s0.4,1,1,1
	c7.2,0,13,5.8,13,13c0,0.6,0.4,1,1,1s1-0.4,1-1C25.6,18.2,24.1,14.4,21.2,11.5z"/>
</svg>
