<svg xmlns="http://www.w3.org/2000/svg" viewBox="0 0 55 55"><defs><style>.cls-1,.cls-3,.cls-6{fill:#fff;}.cls-2{fill:#3e72d7;}.cls-2,.cls-3{fill-rule:evenodd;}.cls-4{fill:none;stroke:#3e72d7;stroke-width:2px;}.cls-5{fill:#14950e;}.cls-6{font-size:12.19px;font-family:Roboto-Regular, Roboto;letter-spacing:-0.02em;}</style></defs><g id="Layer_2" data-name="Layer 2"><g id="Layer_1-2" data-name="Layer 1"><rect class="cls-1" width="55" height="55"/><rect class="cls-1" x="15.62" y="9.69" width="28.46" height="35.75"/><path class="cls-2" d="M44.08,18.13a.58.58,0,0,0-.17-.46L34.46,8.13A.59.59,0,0,0,34.08,8H15a2,2,0,0,0-1.94,2V45.08A2,2,0,0,0,15,47H42.15a1.94,1.94,0,0,0,1.93-2V18.13Zm-10.61-7v7a.63.63,0,0,0,.17.42.61.61,0,0,0,.41.17H41V33.52H16.2V11.09Z"/><path class="cls-3" d="M0,0V55H55V0ZM27.26,54A26.5,26.5,0,1,1,53.51,27.5,26.38,26.38,0,0,1,27.26,54Z"/><ellipse id="Oval-46" class="cls-4" cx="27.26" cy="27.5" rx="26.26" ry="26.5"/><polygon class="cls-5" points="6.69 32.53 12.78 26.44 6.69 20.35 9.89 17.15 19.18 26.44 9.89 35.73 6.69 32.53"/><path class="cls-1" d="M9.89,18.43l8,8-8,8L8,32.53l6.09-6.09L8,20.35l1.92-1.92m0-2.56L8.61,17.15,6.69,19.07,5.41,20.35l1.28,1.29,4.81,4.8L6.69,31.25,5.41,32.53l1.28,1.28,1.92,1.92L9.89,37l1.29-1.28,8-8,1.29-1.28-1.29-1.28-8-8L9.89,15.87Z"/><path class="cls-5" d="M4.11,25.08h10l0,2.72H4C4,27,4,26.11,4.11,25.08Z"/><text class="cls-6" transform="translate(15.32 43.73)">docx</text></g></g></svg>