<svg xmlns="http://www.w3.org/2000/svg" viewBox="0 0 55 55"><defs><style>.cls-1,.cls-2,.cls-5{fill:#fff;}.cls-2,.cls-4{fill-rule:evenodd;}.cls-3{fill:none;stroke:#3e72d7;stroke-width:2px;}.cls-4{fill:#3e72d7;}.cls-5{font-size:12.19px;font-family:Roboto-Regular, Roboto;letter-spacing:-0.02em;}.cls-6{opacity:0.6;}.cls-7{fill:#14950e;}</style></defs><g id="Layer_2" data-name="Layer 2"><g id="Layer_1-2" data-name="Layer 1"><rect class="cls-1" width="55" height="55"/><rect class="cls-1" x="15.62" y="9.69" width="28.46" height="35.75"/><path class="cls-2" d="M0,0V55H55V0ZM27.26,54A26.5,26.5,0,1,1,53.51,27.5,26.38,26.38,0,0,1,27.26,54Z"/><ellipse id="Oval-46" class="cls-3" cx="27.26" cy="27.5" rx="26.26" ry="26.5"/><path class="cls-4" d="M44.08,18.13a.58.58,0,0,0-.17-.46L34.46,8.13A.59.59,0,0,0,34.08,8H15a2,2,0,0,0-1.94,2V45.08A2,2,0,0,0,15,47H42.15a1.94,1.94,0,0,0,1.93-2V18.13Zm-10.61-7v7a.63.63,0,0,0,.17.42.61.61,0,0,0,.41.17H41V33.52H16.2V11.09Z"/><text class="cls-5" transform="translate(15.32 43.73)">docx</text><g class="cls-6"><polygon class="cls-7" points="18.89 34.45 16.97 32.53 23.06 26.44 16.97 20.35 18.89 18.43 26.9 26.44 18.89 34.45"/><polygon class="cls-7" points="12.33 27.8 12.33 25.08 23.09 25.08 23.07 27.8 12.33 27.8"/></g></g></g></svg>