<?xml version="1.0" encoding="UTF-8"?>
<svg width="55px" height="55px" viewBox="0 0 55 55" version="1.1" xmlns="http://www.w3.org/2000/svg" xmlns:xlink="http://www.w3.org/1999/xlink">
    <!-- Generator: Sketch 56.3 (81716) - https://sketch.com -->
    <title>preview</title>
    <desc>Created with Sketch.</desc>
    <g id="preview" stroke="none" stroke-width="1" fill="none" fill-rule="evenodd">
        <g id="preview-2">
            <g id="preview">
                <path d="M27.2560386,54 C29.1543633,54 31.0259431,53.7968348 32.8491887,53.3976552 C44.8252693,50.7756236 53.5120773,40.0323714 53.5120773,27.5 C53.5120773,12.8624692 41.7548438,1 27.2560386,1 C12.7572335,1 1,12.8624692 1,27.5 C1,42.1375308 12.7572335,54 27.2560386,54 Z" id="Oval-46" stroke="#3E72D7" stroke-width="2" fill="#FFFFFF"></path>
                <g id="ic_remove_red_eye_black_24px" transform="translate(9.000000, 10.000000)">
                    <polygon id="Shape" points="0 0 37 0 37 36 0 36"></polygon>
                    <path d="M18.5,6.75 C10.7916667,6.75 4.20875,11.415 1.54166667,18 C4.20875,24.585 10.7916667,29.25 18.5,29.25 C26.2083333,29.25 32.79125,24.585 35.4583333,18 C32.79125,11.415 26.2083333,6.75 18.5,6.75 Z M18.5,25.5 C14.245,25.5 10.7916667,22.14 10.7916667,18 C10.7916667,13.86 14.245,10.5 18.5,10.5 C22.755,10.5 26.2083333,13.86 26.2083333,18 C26.2083333,22.14 22.755,25.5 18.5,25.5 Z M18.5,13.5 C15.9408333,13.5 13.875,15.51 13.875,18 C13.875,20.49 15.9408333,22.5 18.5,22.5 C21.0591667,22.5 23.125,20.49 23.125,18 C23.125,15.51 21.0591667,13.5 18.5,13.5 Z" id="Shape" fill="#3E72D7" fill-rule="nonzero"></path>
                </g>
            </g>
        </g>
    </g>
</svg>