<svg width="57" height="57" viewBox="0 0 57 57" fill="none" xmlns="http://www.w3.org/2000/svg">
<path d="M2.48834 28.6386C2.41015 13.9949 14.1103 2.07621 28.6025 1.99883C43.0947 1.92146 54.9215 13.7145 54.9997 28.3583C55.0779 43.002 43.3777 54.9207 28.8855 54.9981C14.3933 55.0755 2.56653 43.2824 2.48834 28.6386Z" fill="white" stroke="#3E72D7" stroke-width="2"/>
<path d="M16.9311 27.001C16.3484 27.5899 16.3535 28.5396 16.9424 29.1222L26.5392 38.6171C27.1281 39.1997 28.0778 39.1947 28.6605 38.6058C29.2431 38.0169 29.238 37.0671 28.6491 36.4845L20.1187 28.0446L28.5585 19.5141C29.1412 18.9252 29.1361 17.9755 28.5472 17.3929C27.9583 16.8102 27.0086 16.8153 26.4259 17.4042L16.9311 27.001ZM39.9891 26.4385L17.9894 26.556L18.0054 29.5559L40.0051 29.4385L39.9891 26.4385Z" fill="#3E72D7"/>
</svg>
