<svg width="332" height="332" viewBox="0 0 332 332" fill="none" xmlns="http://www.w3.org/2000/svg">
<circle cx="166" cy="166" r="162" fill="#F8BA1C" stroke="#FFB700" stroke-width="8"/>
<path fill-rule="evenodd" clip-rule="evenodd" d="M236.714 234.476L209.709 162.096C203.805 163.388 197.167 166.265 189.795 170.725L100.148 81.0778L132.004 77.2542L208.545 153.795C212.064 157.314 214.338 160.198 215.366 162.446L240.199 227.532C244.187 237.985 246.361 244.184 246.721 246.13C247.081 248.076 247.091 249.885 246.752 251.559C246.413 253.233 245.695 254.619 244.597 255.717C243.256 257.058 241.505 257.778 239.345 257.874C237.185 257.971 234.495 257.507 231.273 256.481L190.707 241.348C166.824 232.346 154.244 227.572 152.968 227.028C149.869 225.759 146.469 223.274 142.767 219.572L66.2265 143.031L70.0502 111.176L159.515 200.641C155.665 207.16 152.85 213.859 151.068 220.737L223.449 247.741C224.553 244.21 226.203 241.347 228.398 239.151C230.594 236.956 233.366 235.397 236.714 234.476V234.476ZM184.033 175.024C179.765 178.563 176.229 181.736 173.423 184.541C169.947 188.018 166.805 191.524 163.998 195.059L73.8049 104.866L93.8399 84.8314L184.033 175.024V175.024Z" fill="white"/>
</svg>
