<?xml version="1.0" encoding="UTF-8"?>
<svg id="Individual_Files"
    xmlns="http://www.w3.org/2000/svg" viewBox="0 0 1047.64 366.13">
    <defs>
        <style>.cls-1{fill:#fff;}.cls-2{fill:#3e72d8;}.cls-3{fill:#3e72d8;}</style>
    </defs>
    <g id="Lockup-2">
        <path class="cls-3" d="M245.02,356.02V216.83H101.15v139.19H11.82V9.59H101.15V138.92H245.02V9.59h89.33V356.02h-89.33Z"/>
        <path class="cls-2" d="M376.94,356.02v-69.6c150.1-108.55,178.15-132.44,178.15-166.72,0-23.89-22.33-36.36-49.34-36.36-36.88,0-65.96,14.54-90.89,37.91l-49.34-59.21C402.39,21.54,457.44,4.4,505.75,4.4c81.54,0,140.23,45.71,140.23,115.3,0,52.98-37.91,98.16-130.88,158.41h133.48v77.91H376.94Z"/>
        <path class="cls-3" d="M856.89,3.88c-102.53,0-179.44,73.75-179.44,179.19s76.9,179.19,179.44,179.19,178.94-73.75,178.94-179.19S959.42,3.88,856.89,3.88Z"/>
        <g>
            <polygon class="cls-1" points="856.58 59.98 856.56 60 833.32 101.85 863 71.53 856.58 59.98"/>
            <path class="cls-1" d="M870.11,84.34l-62.59,63.95-5.25,9.44c-4.32,8.69-8.61,17.3-12.06,26.23l86.27-88.13-6.38-11.49Z"/>
            <path class="cls-1" d="M883.08,107.68l-99.52,101.63c-.75,6.01-.9,12.26-.26,18.88,.01,.15,.04,.29,.05,.43l106.49-108.75-6.77-12.19Z"/>
            <path class="cls-1" d="M896.6,132.04l-110.3,112.65c1.3,4.85,2.95,9.53,4.91,13.98l112.12-114.51-6.73-12.12Z"/>
            <path class="cls-1" d="M910.87,157.73l-.74-1.33-112.31,114.71c2.43,3.83,5.11,7.41,8.01,10.71l110.6-112.96c-1.76-3.55-3.63-7.22-5.57-11.13Z"/>
            <path class="cls-1" d="M923.19,183.39l-106.45,108.73c3.59,2.78,7.39,5.19,11.36,7.19l99.82-101.94c-1.21-4.79-2.81-9.37-4.72-13.98Z"/>
            <path class="cls-1" d="M930.38,217.58c0-1.82-.07-3.58-.18-5.31l-89.82,91.75c2.54,.68,5.12,1.22,7.75,1.57,2.85,.38,5.68,.56,8.46,.56l72.84-74.4c.62-4.62,.95-9.35,.95-14.18Z"/>
            <path class="cls-1" d="M921.79,259.05l-41.55,42.45c17.95-7.29,32.79-22.63,41.55-42.45Z"/>
        </g>
    </g>
</svg>