<?xml version="1.0" encoding="UTF-8"?><svg id="Individual_Files" xmlns="http://www.w3.org/2000/svg" viewBox="0 0 1047.64 506.72"><defs><style>.cls-1{fill:#fff;}.cls-2{fill:#ffd440;}.cls-3{fill:#3e72d8;}</style></defs><g id="Lockup-2"><g><path class="cls-3" d="M187.37,430.21c15.5,0,26.17,11.45,26.17,26.87s-10.67,26.88-26.17,26.88-26.17-11.45-26.17-26.88,10.67-26.87,26.17-26.87Zm0,6.93c-11.14,0-18.15,8.49-18.15,19.94s7.01,19.94,18.15,19.94,18.15-8.57,18.15-19.94-7.17-19.94-18.15-19.94Z"/><path class="cls-3" d="M230.08,483.03v-51.96h21.89c10.67,0,16.59,7.32,16.59,15.97s-6,15.97-16.59,15.97h-14.1v20.02h-7.79Zm20.88-45.1h-13.09v18.23h13.09c5.61,0,9.58-3.66,9.58-9.11s-3.97-9.11-9.58-9.11Z"/><path class="cls-3" d="M282.62,483.03v-51.96h34.9v6.86h-27.11v15.19h26.56v6.86h-26.56v16.2h27.11v6.86h-34.9Z"/><path class="cls-3" d="M370.95,483.03l-28.75-39.88v39.88h-7.79v-51.96h8.02l28.28,38.95v-38.95h7.79v51.96h-7.56Z"/><path class="cls-3" d="M423.54,457.09c0-15.97,11.84-26.87,26.64-26.87,10.2,0,16.59,4.91,20.64,10.98l-6.62,3.51c-2.73-4.36-7.87-7.56-14.02-7.56-10.52,0-18.62,8.26-18.62,19.94s8.1,19.94,18.62,19.94c6.15,0,11.3-3.19,14.02-7.56l6.62,3.51c-4.13,6.08-10.44,10.98-20.64,10.98-14.8,0-26.64-10.91-26.64-26.88Z"/><path class="cls-3" d="M522.96,483.03l-4.21-10.75h-25.47l-4.21,10.75h-8.57l20.64-51.96h9.74l20.64,51.96h-8.57Zm-16.98-45.18l-10.44,27.5h20.96l-10.52-27.5Z"/><path class="cls-3" d="M546.4,469.71c3.51,3.9,9.11,7.32,16.36,7.32,8.41,0,11.37-4.28,11.37-8.02,0-5.45-5.92-7.01-12.54-8.73-8.34-2.18-18-4.6-18-15.19,0-8.57,7.56-14.8,18.38-14.8,8.02,0,14.33,2.57,18.93,7.24l-4.52,5.76c-3.97-4.21-9.43-6.08-15.04-6.08s-9.74,2.96-9.74,7.32c0,4.67,5.61,6.15,12.07,7.79,8.49,2.26,18.38,4.91,18.38,15.97,0,8.1-5.61,15.66-19.63,15.66-9.27,0-16.05-3.35-20.49-8.26l4.44-6Z"/><path class="cls-3" d="M598.19,483.03v-51.96h34.9v6.86h-27.11v15.19h26.56v6.86h-26.56v16.2h27.11v6.86h-34.9Z"/><path class="cls-3" d="M649.99,483.03v-51.96h24.38c9.27,0,14.64,5.69,14.64,13.24,0,6.54-4.28,10.91-9.04,11.92,5.53,.86,10.05,6.47,10.05,12.78,0,8.18-5.45,14.02-15.04,14.02h-25.01Zm7.79-29.91h15.11c5.22,0,8.1-3.27,8.1-7.56s-2.88-7.63-8.1-7.63h-15.11v15.19Zm0,23.06h15.5c5.45,0,8.72-3.12,8.72-8.18,0-4.28-2.96-8.02-8.72-8.02h-15.5v16.2Z"/><path class="cls-3" d="M730.24,430.21c15.5,0,26.17,11.45,26.17,26.87s-10.67,26.88-26.17,26.88-26.17-11.45-26.17-26.88,10.67-26.87,26.17-26.87Zm0,6.93c-11.14,0-18.15,8.49-18.15,19.94s7.01,19.94,18.15,19.94,18.15-8.57,18.15-19.94-7.17-19.94-18.15-19.94Z"/><path class="cls-3" d="M796.34,430.21c15.5,0,26.17,11.45,26.17,26.87s-10.67,26.88-26.17,26.88-26.17-11.45-26.17-26.88,10.67-26.87,26.17-26.87Zm0,6.93c-11.14,0-18.15,8.49-18.15,19.94s7.01,19.94,18.15,19.94,18.15-8.57,18.15-19.94-7.17-19.94-18.15-19.94Z"/><path class="cls-3" d="M870.29,483.03l-18.54-22.59-4.91,5.53v17.06h-7.79v-51.96h7.79v25.79l21.73-25.79h9.66l-21.42,24.62,23.14,27.34h-9.66Z"/></g><g><path class="cls-3" d="M245.02,374.89V235.7H101.15v139.19H11.82V28.47H101.15V157.79H245.02V28.47h89.33V374.89h-89.33Z"/><path class="cls-2" d="M376.94,374.89v-69.6c150.1-108.55,178.15-132.44,178.15-166.72,0-23.89-22.33-36.36-49.34-36.36-36.88,0-65.96,14.54-90.89,37.91l-49.34-59.21c36.88-40.51,91.93-57.65,140.23-57.65,81.54,0,140.23,45.71,140.23,115.3,0,52.98-37.91,98.16-130.88,158.41h133.48v77.91H376.94Z"/><path class="cls-3" d="M856.88,22.76c-102.53,0-179.44,73.75-179.44,179.19s76.9,179.19,179.44,179.19,178.94-73.75,178.94-179.19S959.42,22.76,856.88,22.76Z"/><g><polygon class="cls-1" points="856.58 78.86 856.56 78.88 833.32 120.73 863 90.41 856.58 78.86"/><path class="cls-1" d="M870.11,103.22l-62.59,63.95-5.25,9.44c-4.32,8.69-8.61,17.3-12.06,26.23l86.27-88.13-6.38-11.49Z"/><path class="cls-1" d="M883.07,126.56l-99.52,101.63c-.75,6.01-.9,12.26-.26,18.88,.01,.15,.04,.29,.05,.43l106.49-108.75-6.77-12.19Z"/><path class="cls-1" d="M896.6,150.92l-110.3,112.65c1.3,4.85,2.95,9.53,4.91,13.98l112.12-114.51-6.73-12.12Z"/><path class="cls-1" d="M910.87,176.61l-.74-1.33-112.31,114.71c2.43,3.83,5.11,7.41,8.01,10.71l110.6-112.96c-1.76-3.55-3.63-7.22-5.57-11.13Z"/><path class="cls-1" d="M923.19,202.26l-106.45,108.73c3.59,2.78,7.39,5.19,11.36,7.19l99.82-101.94c-1.21-4.79-2.81-9.37-4.72-13.98Z"/><path class="cls-1" d="M930.37,236.45c0-1.82-.07-3.58-.18-5.31l-89.82,91.75c2.54,.68,5.12,1.22,7.75,1.57,2.85,.38,5.68,.56,8.46,.56l72.84-74.4c.62-4.62,.95-9.35,.95-14.18Z"/><path class="cls-1" d="M921.79,277.92l-41.55,42.45c17.95-7.29,32.79-22.63,41.55-42.45Z"/></g></g></g></svg>