<?xml version="1.0" encoding="UTF-8"?><svg id="Individual_Files" xmlns="http://www.w3.org/2000/svg" viewBox="0 0 508 508"><defs><style>.cls-1{fill:#fff;}.cls-2{fill:#3e72d8;}</style></defs><g id="Main_Icon"><path class="cls-2" d="M254.35,4C111.29,4,4,106.9,4,254s107.29,250,250.35,250,249.65-102.9,249.65-250S397.41,4,254.35,4Z"/><g><polygon class="cls-1" points="253.93 82.27 253.9 82.3 221.47 140.69 262.88 98.39 253.93 82.27"/><path class="cls-1" d="M272.8,116.26l-87.32,89.22-7.32,13.18c-6.03,12.13-12.01,24.14-16.83,36.59l120.37-122.96-8.9-16.03Z"/><path class="cls-1" d="M290.89,148.82l-138.85,141.79c-1.04,8.38-1.26,17.11-.36,26.34,.02,.2,.05,.4,.07,.6l148.58-151.73-9.44-17Z"/><path class="cls-1" d="M309.76,182.81l-153.89,157.16c1.82,6.77,4.11,13.29,6.84,19.51l156.44-159.76-9.39-16.92Z"/><path class="cls-1" d="M329.67,218.65l-1.03-1.86-156.69,160.04c3.39,5.34,7.13,10.33,11.17,14.95l154.32-157.6c-2.46-4.95-5.06-10.08-7.77-15.53Z"/><path class="cls-1" d="M346.85,254.45l-148.52,151.71c5.01,3.88,10.31,7.24,15.84,10.03l139.26-142.23c-1.68-6.68-3.92-13.08-6.58-19.51Z"/><path class="cls-1" d="M356.88,302.15c0-2.54-.1-4.99-.25-7.4l-125.32,128.01c3.54,.95,7.14,1.7,10.81,2.19,3.98,.53,7.92,.78,11.81,.78l101.63-103.8c.86-6.44,1.32-13.05,1.32-19.78Z"/><path class="cls-1" d="M344.9,360.01l-57.98,59.22c25.04-10.17,45.75-31.57,57.98-59.22Z"/></g></g></svg>