<?xml version="1.0" encoding="UTF-8"?>
<svg width="55px" height="55px" viewBox="0 0 55 55" version="1.1" xmlns="http://www.w3.org/2000/svg" xmlns:xlink="http://www.w3.org/1999/xlink">
    <!-- Generator: Sketch 56.3 (81716) - https://sketch.com -->
    <title>button/export-default</title>
    <desc>Created with Sketch.</desc>
    <g id="button/export-default" stroke="none" stroke-width="1" fill="none" fill-rule="evenodd">
        <ellipse id="Oval-46" stroke="#3E72D7" stroke-width="2" fill="#FFFFFF" cx="27.2560386" cy="27.5" rx="26.2560386" ry="26.5"></ellipse>
        <g id="doc/arrow" transform="translate(17.671498, 10.193548)" fill="#3E72D7">
            <g id="Group">
                <path d="M2.47019813,24.1107145 L2.47019813,2.50103636 L13.8431411,2.50103636 L13.8431411,7.10749941 C13.8431411,7.21246071 13.8859771,7.30918974 13.9548205,7.37813491 C14.0231541,7.44759459 14.119025,7.49029943 14.2235651,7.49132846 L18.7886528,7.49081394 L18.7886528,24.1107145 L2.47019813,24.1107145 Z M20.8264198,7.13785587 C20.8355989,7.02723489 20.7968426,6.91712844 20.7167802,6.8363494 L14.4917997,0.55565081 C14.4244861,0.487220163 14.3357545,0.452747581 14.2434532,0.44760242 L14.2388636,0.442971774 L1.70527057,0.442971774 C1.00102727,0.442971774 0.430391304,1.01871534 0.430391304,1.72926214 L0.430391304,24.8824887 C0.430391304,25.5930355 1.00102727,26.1687791 1.70527057,26.1687791 L19.5535803,26.1687791 C20.2578236,26.1687791 20.8284596,25.5930355 20.8284596,24.8824887 L20.8284596,7.13991393 L20.8264198,7.13785587 Z" id="doc-1"></path>
                <rect id="Rectangle-116" x="4" y="9" width="13" height="1.74000001"></rect>
                <rect id="Rectangle-116-Copy" x="4" y="12.3333333" width="13" height="1.74000001"></rect>
                <rect id="Rectangle-116-Copy-2" x="4" y="15.6666667" width="13" height="1.74000001"></rect>
                <rect id="Rectangle-116-Copy-3" x="4" y="19" width="9" height="1.74000001"></rect>
            </g>
        </g>
        <polyline id="Rectangle-120" stroke="#3E72D7" stroke-width="3" transform="translate(27.778175, 39.778175) rotate(-225.000000) translate(-27.778175, -39.778175) " points="22.2781746 34.2781746 33.2781746 34.2781746 33.2781746 45.2781746"></polyline>
    </g>
</svg>