<?xml version="1.0" encoding="UTF-8"?>
<svg width="55px" height="55px" viewBox="0 0 55 55" version="1.1" xmlns="http://www.w3.org/2000/svg" xmlns:xlink="http://www.w3.org/1999/xlink">
    <!-- Generator: Sketch 56.3 (81716) - https://sketch.com -->
    <title>button/publish</title>
    <desc>Created with Sketch.</desc>
    <g id="Symbols" stroke="none" stroke-width="1" fill="none" fill-rule="evenodd">
        <g id="button/publish">
            <g transform="translate(0.000000, -0.000000)">
                <ellipse id="Oval-46" stroke="#F8BA1C" stroke-width="2" fill="#F8BA1C" cx="27.2560386" cy="27.5" rx="26.2560386" ry="26.5"></ellipse>
                <path d="M35.3903559,12.0090105 C34.437218,12.0423772 33.4761406,12.2672444 32.5597857,12.6945392 C32.2041979,12.847124 31.9597987,13.1810957 31.9219266,13.5661743 C31.8840545,13.9512529 32.0587089,14.3264364 32.3777585,14.5453685 C32.696808,14.7643006 33.1097106,14.7922991 33.4553959,14.6184422 C36.0809841,13.3941342 39.1637485,14.5138818 40.3880812,17.1394187 C41.0408128,18.5391787 41.0408141,20.1513683 40.3880812,21.5511274 C40.1797786,21.9806747 40.2838345,22.49643 40.6423902,22.8116157 C40.8958332,23.0340762 41.2398993,23.1228885 41.5693532,23.0508887 C41.898807,22.9788889 42.1744536,22.7546427 42.3119843,22.4467377 C43.2293381,20.4795027 43.2293381,18.2110434 42.3119843,16.2438088 C41.0300748,13.4947995 38.2497691,11.9089103 35.3903559,12.0090105 L35.3903559,12.0090105 Z M26.1025478,13.369011 C25.7604267,13.369011 25.4138329,13.4938233 25.1516532,13.7560028 C24.6272939,14.2803622 24.6272939,15.1223762 25.1516532,15.6467352 L26.0140926,16.5091746 L16.2508369,36.1351975 C15.7244183,35.6483783 14.9049153,35.6677851 14.3932753,36.1794254 C13.868916,36.7037844 13.8689015,37.5457945 14.3932753,38.0701577 L16.9363657,40.6021909 C17.460725,41.1265505 18.3027345,41.1265505 18.827098,40.6021909 C19.3387376,40.0905478 19.3470877,39.2821051 18.8602689,38.7556865 L21.5028713,37.4399136 C21.7090861,37.878074 21.9908301,38.2794678 22.3321398,38.6230034 C23.1179525,39.4087574 24.2172987,39.8724971 25.3285639,39.8724346 C26.439829,39.8723724 27.5392632,39.4088454 28.3249876,38.6230034 C29.5888353,37.3560034 29.9153978,35.2562861 29.0879147,33.6695057 L38.4973488,28.9924311 L39.3487312,29.8438134 C39.8730905,30.3681731 40.7151042,30.3681731 41.2394635,29.8438134 C41.7638267,29.3194541 41.7638267,28.4774401 41.2394635,27.9530811 L27.0423856,13.7560028 C26.7802056,13.4938233 26.4446688,13.369011 26.1025478,13.369011 L26.1025478,13.369011 Z M35.0254775,15.5251092 C34.468761,15.5439721 33.9119136,15.6741888 33.3779975,15.9231583 C32.8823465,16.1900796 32.6807843,16.7971727 32.9183674,17.3075364 C33.1559505,17.8179002 33.7502657,18.0544987 34.2736074,17.8470612 C35.3694523,17.3360606 36.6374048,17.801624 37.1484051,18.8974683 C37.4193489,19.478509 37.4193489,20.1518739 37.1484051,20.732916 C36.961313,21.1283394 37.0359384,21.5980399 37.3363728,21.9160058 C37.5785847,22.1771762 37.9356354,22.2994645 38.2871059,22.2416275 C38.6385763,22.1837906 38.937614,21.9535384 39.0833654,21.6285259 C39.6189296,20.4800041 39.6189296,19.1503798 39.0833654,18.001858 C38.3364575,16.4001088 36.6956275,15.4685247 35.0254775,15.5251092 L35.0254775,15.5251092 Z M27.5178328,18.4994191 L31.3214113,22.3029979 L18.0973417,37.2961735 L17.2791302,36.466905 L27.5178328,18.4994191 L27.5178328,18.4994191 Z M27.2966946,34.5651159 C27.7526655,35.4052269 27.5851795,36.5313855 26.9097025,37.2077183 C26.081554,38.0358536 24.5755737,38.0358536 23.7474249,37.2077183 C23.5587554,37.0177477 23.4039814,36.7884534 23.2940914,36.5443034 L27.2966946,34.5651159 L27.2966946,34.5651159 Z" id="Shape" fill="#FFFFFF"></path>
            </g>
        </g>
    </g>
</svg>